<?xml version="1.0" standalone="no"?>
<!DOCTYPE svg PUBLIC "-//W3C//DTD SVG 20010904//EN"
 "http://www.w3.org/TR/2001/REC-SVG-20010904/DTD/svg10.dtd">
<svg version="1.0" xmlns="http://www.w3.org/2000/svg"
 width="486.000000pt" height="1280.000000pt" viewBox="0 0 486.000000 1280.000000"
 preserveAspectRatio="xMidYMid meet">
<metadata>
Created by potrace 1.15, written by Peter Selinger 2001-2017
</metadata>
<g transform="translate(0.000000,1280.000000) scale(0.100000,-0.100000)"
fill="#000000" stroke="none">
<path d="M2290 12318 c-47 -3 -127 -6 -178 -7 -129 -1 -232 -19 -260 -45 -51
-46 -63 -78 -56 -154 6 -61 4 -75 -15 -107 -19 -32 -21 -51 -21 -180 0 -129 2
-148 21 -182 16 -29 22 -56 22 -108 1 -79 -10 -427 -18 -580 -4 -78 -17 -566
-17 -670 0 -11 -4 -47 -9 -80 -4 -33 -9 -105 -10 -160 -1 -55 -8 -145 -15
-200 -7 -55 -16 -129 -19 -165 -4 -36 -14 -101 -22 -145 -8 -44 -16 -89 -18
-100 -15 -83 -58 -277 -75 -337 -11 -40 -32 -116 -46 -168 -40 -152 -234 -757
-254 -792 -6 -10 -10 -26 -10 -37 0 -10 -8 -36 -17 -57 -9 -22 -17 -41 -18
-44 -1 -3 -12 -39 -25 -80 -13 -41 -24 -77 -25 -80 -1 -3 -5 -13 -8 -22 -16
-41 -20 -54 -23 -63 -1 -5 -9 -30 -17 -55 -8 -25 -20 -65 -27 -90 -8 -25 -17
-49 -22 -55 -4 -5 -8 -19 -8 -30 0 -12 -3 -25 -7 -29 -4 -4 -9 -19 -11 -34 -2
-14 -7 -31 -11 -37 -5 -5 -12 -26 -16 -45 -4 -19 -10 -39 -13 -45 -3 -5 -7
-16 -8 -25 -1 -8 -12 -46 -24 -85 -12 -38 -28 -99 -35 -135 -8 -36 -23 -108
-35 -160 -11 -52 -31 -160 -44 -240 -22 -136 -28 -182 -55 -400 -27 -212 -34
-480 -34 -1267 0 -586 3 -826 11 -835 6 -8 13 -73 15 -153 41 -1273 68 -2131
73 -2300 3 -115 10 -231 15 -256 6 -25 9 -50 8 -55 -3 -9 2 -75 23 -284 16
-169 54 -233 181 -303 35 -20 70 -43 77 -52 7 -8 21 -15 30 -15 10 0 33 -8 52
-17 51 -25 56 -27 163 -60 149 -47 224 -65 236 -58 5 4 15 2 22 -3 7 -5 37
-12 67 -16 30 -4 129 -16 220 -27 179 -21 579 -30 725 -16 70 7 176 17 310 31
125 13 231 29 240 36 6 4 26 8 45 7 64 -1 300 82 300 105 0 5 6 8 13 5 19 -7
63 19 143 85 40 33 80 75 89 95 9 19 24 78 33 131 14 83 17 214 19 917 2 886
4 1014 15 1021 4 3 1 20 -6 39 -8 18 -13 35 -10 37 2 3 6 189 9 414 3 225 8
616 12 869 9 633 10 1538 0 1665 -13 181 -23 271 -62 557 -5 32 -51 264 -79
395 -8 37 -20 77 -27 90 -7 13 -11 23 -9 23 1 0 -5 27 -15 60 -10 33 -19 67
-20 75 0 8 -7 25 -13 37 -7 12 -12 30 -12 41 0 10 -13 56 -30 102 -16 46 -30
91 -30 102 0 10 -4 26 -9 36 -17 33 -60 148 -65 175 -7 33 -19 73 -26 82 -3 6
-12 30 -19 55 -7 25 -23 72 -35 105 -13 33 -31 85 -41 115 -9 30 -23 69 -30
85 -7 17 -21 57 -31 90 -10 33 -21 62 -25 65 -6 5 -17 37 -40 120 -7 25 -21
64 -31 88 -10 24 -20 53 -22 65 -5 25 -24 79 -42 122 -7 17 -18 53 -24 80 -6
26 -14 53 -18 59 -3 6 -7 16 -7 21 0 6 -10 42 -22 80 -45 142 -77 267 -108
415 -23 110 -65 342 -71 385 -1 11 -5 43 -8 70 -4 28 -9 61 -12 75 -3 14 -6
86 -5 160 1 74 -3 191 -9 260 -11 138 -17 251 -25 475 -3 83 -8 182 -11 220
-3 39 -7 141 -9 228 -2 86 -6 161 -9 166 -3 5 -6 51 -7 102 -1 73 4 106 19
145 18 46 20 67 15 199 -4 121 -8 153 -23 174 -13 18 -20 51 -23 110 -7 118
-33 146 -148 165 -20 3 -43 8 -52 12 -23 8 -275 10 -377 2z m-1364 -7318 c17
-17 216 -77 314 -95 52 -9 127 -23 165 -31 78 -15 281 -40 455 -54 179 -14
924 -4 1125 15 226 22 496 63 550 85 43 17 154 38 174 33 l21 -5 2 -1387 c1
-762 2 -1528 2 -1701 l1 -315 -46 -23 c-55 -27 -216 -83 -319 -111 -130 -34
-321 -63 -640 -96 -119 -12 -609 -16 -670 -5 -36 6 -103 15 -150 20 -47 5
-116 13 -155 19 -38 6 -105 15 -147 21 -162 23 -418 95 -528 147 -156 74 -150
65 -155 208 -13 384 -40 3259 -30 3274 8 14 18 14 31 1z"/>
</g>
</svg>
